#!OML:ASF I:\Actors\actors\Patient Classification 1\Patient 1\Session 1\Subject1.ASF
:FULLY-SPECIFIED
:DEGREES
309
root -1.21066 17.3295 9.64202 1.24472 28.1677 -15.0772
lowerback 0.892763 2.79 5.77148
upperback -8.73685 4.41105 2.30052
thorax -9.53408 1.86596 -1.16566
lowerneck -13.5981 4.068 7.99516
upperneck 33.2372 2.01781 6.38623
head 13.6477 2.93395 1.51984
rclavicle 7.92157e-014 1.11319e-014
rhumerus -41.334 34.274 -93.94
rradius 101.894
rwrist -25.3903
rhand 12.434 -48.1126
rfingers 7.12502
rthumb 37.4311 -74.0644
lclavicle 7.92157e-014 1.11319e-014
lhumerus 9.73277 -28.6208 31.8517
lradius 48.5822
lwrist 15.5504
lhand -8.61062 -3.78875
lfingers 7.12502
lthumb 17.3212 25.4594
rfemur -1.96859 6.66304 38.2318
rtibia 9.63993
rfoot -18.9993 -24.8179
rtoes 9.31147
lfemur -11.9056 -36.9371 11.5688
ltibia 3.15236
lfoot -4.93945 22.0256
ltoes -27.4343
310
root -1.28013 17.3248 9.6542 1.07603 28.6264 -15.5068
lowerback 0.64998 2.70824 5.53937
upperback -8.78955 4.29734 2.56517
thorax -9.49161 1.84534 -0.736891
lowerneck -13.6016 4.28793 8.46029
upperneck 33.3183 2.24485 6.29183
head 13.7048 3.08443 1.4459
rclavicle 1.46107e-014 -2.62396e-014
rhumerus -39.8658 35.9072 -93.6745
rradius 101.402
rwrist -25.7539
rhand 13.2138 -48.0998
rfingers 7.12502
rthumb 38.1678 -73.8532
lclavicle 1.46107e-014 -2.62396e-014
lhumerus 13.374 -28.9269 29.905
lradius 43.3651
lwrist 11.3369
lhand -10.0714 -4.46195
lfingers 7.12502
lthumb 15.9149 24.9041
rfemur -2.29968 6.27851 38.8309
rtibia 9.83606
rfoot -19.0257 -24.8555
rtoes 9.27061
lfemur -12.4451 -37.2249 12.6111
ltibia 3.11072
lfoot -4.90056 22.044
ltoes -27.5071
311
root -1.34252 17.3199 9.66232 0.855758 28.9753 -16.0103
lowerback 0.444842 2.58654 5.48634
upperback -8.77711 4.1342 2.79454
thorax -9.38578 1.78576 -0.441349
lowerneck -13.5785 4.57263 8.89014
upperneck 33.2003 2.52924 6.36436
head 13.6693 3.26716 1.44403
rclavicle 8.68689e-014 -1.11319e-014
rhumerus -38.103 37.5475 -93.408
rradius 100.88
rwrist -26.424
rhand 13.3014 -48.0768
rfingers 7.12502
rthumb 38.2505 -73.8075
lclavicle 8.68689e-014 -1.11319e-014
lhumerus 16.5801 -28.6117 28.2132
lradius 38.3835
lwrist 8.86064
lhand -10.2754 -4.39434
lfingers 7.12502
lthumb 15.7184 24.9873
rfemur -2.5241 5.8891 39.499
rtibia 9.89497
rfoot -18.9286 -24.8611
rtoes 8.79741
lfemur -12.8147 -37.5502 13.6337
ltibia 2.98904
lfoot -4.91559 22.1771
ltoes -27.5829
312
root -1.40116 17.3126 9.66554 0.773262 29.1026 -16.3709
lowerback 0.297081 2.48613 5.36807
upperback -8.74638 3.9962 2.9982
thorax -9.29247 1.74111 -0.142441
lowerneck -13.7573 4.90912 9.08453
upperneck 33.1574 2.87574 6.57719
head 13.7018 3.46967 1.55722
rclavicle 8.61732e-014 -7.95139e-016
rhumerus -36.1297 39.1651 -93.0831
rradius 100.39
rwrist -27.3059
rhand 13.2607 -48.101
rfingers 7.12502
rthumb 38.2121 -73.8422
lclavicle 8.61732e-014 -7.95139e-016
lhumerus 19.146 -27.731 26.9394
lradius 33.8898
lwrist 6.42912
lhand -9.49119 -4.12613
lfingers 7.12502
lthumb 16.4736 25.1945
rfemur -2.83801 5.61228 40.0138
rtibia 10.0261
rfoot -18.8122 -24.7534
rtoes 8.45047
lfemur -13.0874 -37.9244 14.5009
ltibia 2.81687
lfoot -4.90183 22.5132
ltoes -27.8189
313
root -1.45539 17.3034 9.6649 0.79281 29.006 -16.429
lowerback 0.367085 2.44199 5.07109
upperback -8.73667 3.93459 3.1053
thorax -9.34992 1.73784 0.136026
lowerneck -13.956 5.21706 9.29765
upperneck 33.118 3.20695 6.67694
head 13.7414 3.65201 1.62128
rclavicle 1.36167e-014 -3.18055e-015
rhumerus -34.3217 40.488 -92.8274
rradius 100.001
rwrist -28.1526
rhand 13.5199 -48.1508
rfingers 7.12502
rthumb 38.4567 -73.8243
lclavicle 1.36167e-014 -3.18055e-015
lhumerus 20.8822 -26.348 26.2
lradius 30.1599
lwrist 2.70337
lhand -8.62764 -3.98588
lfingers 7.12502
lthumb 17.3048 25.2637
rfemur -3.09112 5.44045 40.2219
rtibia 10.2063
rfoot -18.9001 -24.5134
rtoes 9.21446
lfemur -13.1166 -38.2906 14.9249
ltibia 2.62624
lfoot -4.74753 22.9272
ltoes -28.3863
314
root -1.5023 17.2972 9.66645 0.685544 28.7363 -16.3018
lowerback 0.668911 2.41677 4.6524
upperback -8.66116 3.89598 3.14463
thorax -9.4715 1.7492 0.398745
lowerneck -13.9962 5.53537 9.78484
upperneck 32.921 3.55114 6.62553
head 13.6929 3.84431 1.56964
rclavicle -4.07509e-014 -1.74931e-014
rhumerus -32.898 41.3829 -92.8485
rradius 99.7057
rwrist -28.6313
rhand 13.9745 -48.0747
rfingers 7.12502
rthumb 38.8855 -73.6275
lclavicle -4.07509e-014 -1.74931e-014
lhumerus 21.8068 -24.3318 26.0163
lradius 27.209
lwrist -2.10903
lhand -8.32246 -4.08843
lfingers 7.12502
lthumb 17.5985 25.1351
rfemur -2.98728 5.35903 40.269
rtibia 10.2802
rfoot -19.0538 -24.2933
rtoes 10.0063
lfemur -12.6493 -38.8025 14.8511
ltibia 2.40236
lfoot -4.86145 23.465
ltoes -28.2306
315
root -1.54174 17.2894 9.67022 0.662449 28.213 -16.2049
lowerback 0.841546 2.43549 4.31593
upperback -8.56395 3.91033 3.21222
thorax -9.48924 1.78417 0.648286
lowerneck -14.0459 5.88937 10.3279
upperneck 32.7747 3.93896 6.53461
head 13.6756 4.0581 1.50452
rclavicle 3.926e-014 1.59028e-014
rhumerus -31.6263 42.2304 -92.9787
rradius 99.4998
rwrist -28.8744
rhand 14.227 -47.8288
rfingers 7.12502
rthumb 39.1236 -73.3133
lclavicle 3.926e-014 1.59028e-014
lhumerus 22.1215 -21.822 26.2737
lradius 24.9585
lwrist -6.63192
lhand -8.88559 -4.00957
lfingers 7.12502
lthumb 17.0566 25.2617
rfemur -2.93887 5.32166 40.3384
rtibia 10.4247
rfoot -18.8723 -23.9596
rtoes 9.02088
lfemur -12.0361 -39.2973 14.7565
ltibia 2.16512
lfoot -5.25297 24.2665
ltoes -27.4408
